<svg width="43" height="43" viewBox="0 0 43 43" fill="none" xmlns="http://www.w3.org/2000/svg">
<path d="M28.5 7.8125H32C32.9283 7.8125 33.8185 8.18125 34.4749 8.83763C35.1313 9.494 35.5 10.3842 35.5 11.3125V35.8125C35.5 36.7408 35.1313 37.631 34.4749 38.2874C33.8185 38.9438 32.9283 39.3125 32 39.3125H11C10.0717 39.3125 9.1815 38.9438 8.52513 38.2874C7.86875 37.631 7.5 36.7408 7.5 35.8125V11.3125C7.5 10.3842 7.86875 9.494 8.52513 8.83763C9.1815 8.18125 10.0717 7.8125 11 7.8125H14.5M16.25 4.3125H26.75C27.7165 4.3125 28.5 5.096 28.5 6.0625V9.5625C28.5 10.529 27.7165 11.3125 26.75 11.3125H16.25C15.2835 11.3125 14.5 10.529 14.5 9.5625V6.0625C14.5 5.096 15.2835 4.3125 16.25 4.3125Z" stroke="url(#paint0_linear_1089_374)" stroke-linecap="round" stroke-linejoin="round"/>
<defs>
<linearGradient id="paint0_linear_1089_374" x1="10.7" y1="12.5" x2="36.2959" y2="28.8814" gradientUnits="userSpaceOnUse">
<stop stop-color="#B69EFC"/>
<stop offset="0.49" stop-color="#936AFF"/>
<stop offset="1" stop-color="#5536A2"/>
</linearGradient>
</defs>
</svg>
